<svg xmlns="http://www.w3.org/2000/svg" fill="none" viewBox="0 0 276 276">
  <circle cx="119.6" cy="119.6" r="98.44" fill="#FFC700"/>
  <path fill="#000" fill-opacity=".8" fill-rule="evenodd" d="m225.92 160.7 26.1 9.32-27.12-6.06c.36-1.07.7-2.16 1.02-3.25Zm-9.27-3.3 9.27 3.3a88.64 88.64 0 0 0-84.47-113.5l-.71-19.6-1.51 19.61a88.64 88.64 0 1 0 85.67 116.75l-9.67-2.15a78.3 78.3 0 0 0 1.42-4.41Zm-5.9-2.11 5.9 2.1A79 79 0 0 0 141.8 56.47l-.34-9.26a90.82 90.82 0 0 0-2.23.01l-.72 9.28a79 79 0 1 0 76.72 105.32l-6.16-1.38c.62-1.69 1.18-3.4 1.68-5.14Zm-5.81-54.17a72.37 72.37 0 0 1 8.57 34.26c0 6.9-.97 13.58-2.76 19.91l-66.21-23.63-2.52-68.96a72.34 72.34 0 0 1 33.06 8.56l-1.27.85-.22 3.4-.19 3.38 2.84-1.86 2.83-1.89.1-1.52a73.06 73.06 0 0 1 23.4 23.41l-1.52.1-1.88 2.83-1.86 2.84 3.38-.2 3.4-.21.85-1.27Zm0 0a72.54 72.54 0 0 0-2.36-4.09l1.87-.12 3.39-.19-1.86 2.83-1.04 1.57Zm-25.77-27.5a72.92 72.92 0 0 0-4.09-2.36l1.56-1.04 2.84-1.86-.2 3.39-.11 1.87Zm-41.14-10.88-5.67 73.42-15.47-1.23 17.4 8.5 4.63 15.57 1.08-14 69.07 15.43a72.2 72.2 0 0 1-4.18 9.3l-.8-1.2-3.4-.22-3.38-.19 1.86 2.83 1.88 2.84 1.44.1a73.07 73.07 0 0 1-23.33 23.26l-.09-1.38-2.83-1.88-2.84-1.86.2 3.38.2 3.4 1.15.76a72.33 72.33 0 0 1-32.98 8.5l.3-1.19 1.5-6.1-1.5-6.1-1.53-6.05-1.53 6.05-1.5 6.1 1.5 6.1.3 1.18a72.33 72.33 0 0 1-32.92-8.53l1.08-.72.22-3.4.19-3.38-2.84 1.86-2.83 1.88-.08 1.29a73.08 73.08 0 0 1-23.2-23.19l1.3-.08 1.88-2.84 1.86-2.83-3.39.2-3.4.2-.71 1.09a72.33 72.33 0 0 1-8.53-32.92l1.18.3 6.1 1.5 6.1-1.5 6.05-1.53-6.05-1.53-6.1-1.5-6.1 1.5-1.19.3a72.33 72.33 0 0 1 8.5-32.99l.76 1.15 3.4.22 3.38.19-1.86-2.84-1.89-2.83-1.37-.09a73.07 73.07 0 0 1 23.27-23.33l.09 1.43 2.83 1.89 2.84 1.86-.2-3.39-.2-3.4-1.22-.8a72.3 72.3 0 0 1 31.57-8.56Zm-31.56 8.56-1.64-1.08-2.83-1.86.2 3.39.12 1.96a72.56 72.56 0 0 1 4.15-2.4ZM79.05 97.04l-2.02-.13-3.39-.19 1.86 2.83 1.12 1.7a72.4 72.4 0 0 1 2.43-4.2Zm-10.92 37.2-4.87 1.22 4.88 1.23a73.57 73.57 0 0 1 0-2.46Zm8.54 35.37-1.17 1.75-1.86 2.84 3.39-.2 2.1-.13a81.26 81.26 0 0 1-2.46-4.26Zm25.66 27.45-.14 2.11-.19 3.39 2.83-1.86 1.76-1.17a72.37 72.37 0 0 1-4.26-2.47Zm37.18 11 1.23 4.88 1.23-4.88a73.54 73.54 0 0 1-2.46 0Zm35.44-8.49 1.7 1.13 2.83 1.86-.2-3.39-.12-2.02a72.14 72.14 0 0 1-4.2 2.42Zm27.54-25.69 1.96.13 3.39.19-1.86-2.84-1.09-1.63a73.24 73.24 0 0 1-2.4 4.15ZM138.03 62.74l.48-6.25a80.54 80.54 0 0 1 3.28-.02l.23 6.23a74.2 74.2 0 0 0-4 .04Z" clip-rule="evenodd"/>
  <path fill="url(#a)" fill-opacity=".2" fill-rule="evenodd" d="m225.92 160.7 26.1 9.32-27.12-6.06c.36-1.07.7-2.16 1.02-3.25Zm-9.27-3.3 9.27 3.3a88.64 88.64 0 0 0-84.47-113.5l-.71-19.6-1.51 19.61a88.64 88.64 0 1 0 85.67 116.75l-9.67-2.15a78.3 78.3 0 0 0 1.42-4.41Zm-5.9-2.11 5.9 2.1A79 79 0 0 0 141.8 56.47l-.34-9.26a90.82 90.82 0 0 0-2.23.01l-.72 9.28a79 79 0 1 0 76.72 105.32l-6.16-1.38c.62-1.69 1.18-3.4 1.68-5.14Zm-5.81-54.17a72.37 72.37 0 0 1 8.57 34.26c0 6.9-.97 13.58-2.76 19.91l-66.21-23.63-2.52-68.96a72.34 72.34 0 0 1 33.06 8.56l-1.27.85-.22 3.4-.19 3.38 2.84-1.86 2.83-1.89.1-1.52a73.06 73.06 0 0 1 23.4 23.41l-1.52.1-1.88 2.83-1.86 2.84 3.38-.2 3.4-.21.85-1.27Zm0 0a72.54 72.54 0 0 0-2.36-4.09l1.87-.12 3.39-.19-1.86 2.83-1.04 1.57Zm-25.77-27.5a72.92 72.92 0 0 0-4.09-2.36l1.56-1.04 2.84-1.86-.2 3.39-.11 1.87Zm-41.14-10.88-5.67 73.42-15.47-1.23 17.4 8.5 4.63 15.57 1.08-14 69.07 15.43a72.2 72.2 0 0 1-4.18 9.3l-.8-1.2-3.4-.22-3.38-.19 1.86 2.83 1.88 2.84 1.44.1a73.07 73.07 0 0 1-23.33 23.26l-.09-1.38-2.83-1.88-2.84-1.86.2 3.38.2 3.4 1.15.76a72.33 72.33 0 0 1-32.98 8.5l.3-1.19 1.5-6.1-1.5-6.1-1.53-6.05-1.53 6.05-1.5 6.1 1.5 6.1.3 1.18a72.33 72.33 0 0 1-32.92-8.53l1.08-.72.22-3.4.19-3.38-2.84 1.86-2.83 1.88-.08 1.29a73.08 73.08 0 0 1-23.2-23.19l1.3-.08 1.88-2.84 1.86-2.83-3.39.2-3.4.2-.71 1.09a72.33 72.33 0 0 1-8.53-32.92l1.18.3 6.1 1.5 6.1-1.5 6.05-1.53-6.05-1.53-6.1-1.5-6.1 1.5-1.19.3a72.33 72.33 0 0 1 8.5-32.99l.76 1.15 3.4.22 3.38.19-1.86-2.84-1.89-2.83-1.37-.09a73.07 73.07 0 0 1 23.27-23.33l.09 1.43 2.83 1.89 2.84 1.86-.2-3.39-.2-3.4-1.22-.8a72.3 72.3 0 0 1 31.57-8.56Zm-31.56 8.56-1.64-1.08-2.83-1.86.2 3.39.12 1.96a72.56 72.56 0 0 1 4.15-2.4ZM79.05 97.04l-2.02-.13-3.39-.19 1.86 2.83 1.12 1.7a72.4 72.4 0 0 1 2.43-4.2Zm-10.92 37.2-4.87 1.22 4.88 1.23a73.57 73.57 0 0 1 0-2.46Zm8.54 35.37-1.17 1.75-1.86 2.84 3.39-.2 2.1-.13a81.26 81.26 0 0 1-2.46-4.26Zm25.66 27.45-.14 2.11-.19 3.39 2.83-1.86 1.76-1.17a72.37 72.37 0 0 1-4.26-2.47Zm37.18 11 1.23 4.88 1.23-4.88a73.54 73.54 0 0 1-2.46 0Zm35.44-8.49 1.7 1.13 2.83 1.86-.2-3.39-.12-2.02a72.14 72.14 0 0 1-4.2 2.42Zm27.54-25.69 1.96.13 3.39.19-1.86-2.84-1.09-1.63a73.24 73.24 0 0 1-2.4 4.15ZM138.03 62.74l.48-6.25a80.54 80.54 0 0 1 3.28-.02l.23 6.23a74.2 74.2 0 0 0-4 .04Z" clip-rule="evenodd"/>
  <defs>
    <radialGradient id="a" cx="0" cy="0" r="1" gradientTransform="matrix(65 -85 123 94 76.04 224.48)" gradientUnits="userSpaceOnUse">
      <stop stop-color="#fff"/>
      <stop offset="1" stop-color="#fff" stop-opacity="0"/>
    </radialGradient>
  </defs>
</svg>
