<svg xmlns="http://www.w3.org/2000/svg" fill="none" viewBox="0 0 276 276">
  <circle cx="119.6" cy="119.6" r="98.44" fill="#FFC700"/>
  <path fill="#000" fill-opacity=".8" fill-rule="evenodd" d="m145.36 27.6 7.62 15.7 7.56 15.81-7.56 15.82-7.62 15.69-7.62-15.69-7.56-15.82 7.56-15.82 7.62-15.69Zm-38.41 62.1 7.5 16.95 7.45 17.09-7.44 17.09-.13.28-12.82 4.38-2.07-4.66L92 123.74l7.44-17.09 7.51-16.95Zm80.33 60 45.08 15.4-94.13 32.17-94.13-32.16 57.4-19.62 5.45 12.29 7.38-16.67 23.9-8.17 24.92 8.51-3.07 6.44 6.99 14.67 7.04 14.54 7.04-14.54 6.13-12.86Zm0 0 .86-1.81-6.99-14.66-7.04-14.55-7.04 14.54-3.92 8.23 24.13 8.25ZM43.7 197.57l38.88-13.34 55.65 19.09 55.65-19.09 38.88 13.34L138.23 230 43.7 197.57Z" clip-rule="evenodd"/>
  <path fill="url(#a)" fill-opacity=".2" fill-rule="evenodd" d="m145.36 27.6 7.62 15.7 7.56 15.81-7.56 15.82-7.62 15.69-7.62-15.69-7.56-15.82 7.56-15.82 7.62-15.69Zm-38.41 62.1 7.5 16.95 7.45 17.09-7.44 17.09-.13.28-12.82 4.38-2.07-4.66L92 123.74l7.44-17.09 7.51-16.95Zm80.33 60 45.08 15.4-94.13 32.17-94.13-32.16 57.4-19.62 5.45 12.29 7.38-16.67 23.9-8.17 24.92 8.51-3.07 6.44 6.99 14.67 7.04 14.54 7.04-14.54 6.13-12.86Zm0 0 .86-1.81-6.99-14.66-7.04-14.55-7.04 14.54-3.92 8.23 24.13 8.25ZM43.7 197.57l38.88-13.34 55.65 19.09 55.65-19.09 38.88 13.34L138.23 230 43.7 197.57Z" clip-rule="evenodd"/>
  <defs>
    <radialGradient id="a" cx="0" cy="0" r="1" gradientTransform="matrix(0 -90 186 0 138.23 251.66)" gradientUnits="userSpaceOnUse">
      <stop stop-color="#fff"/>
      <stop offset="1" stop-color="#fff" stop-opacity="0"/>
    </radialGradient>
  </defs>
</svg>
