<svg xmlns="http://www.w3.org/2000/svg" fill="none" viewBox="0 0 276 276">
  <circle cx="119.6" cy="119.6" r="98.44" fill="#FFC700"/>
  <path fill="#000" fill-opacity=".8" fill-rule="evenodd" d="m207.62 178.24-20.98-.36 20.01 2.75-1.8 4.44-38.48 30.2-15-5.25 13.35 6.55-14.3 11.23-63.87-6.65-40.97 10.55-5.3-8.74 49.82-9.55 21.4-20.4 18.65-15.08 8.11 18.6-6.06-20.26 26.46-21.4 5.37-7.14 8.96 22.57-6.75-25.51 25.54-33.96 6.83 24.46-4.3-27.83 5.4-7.18 10.33-13.82 1.97 18.7.3-21.75 23.38-31.28-2.09 49.09-20.05 10.41 19.93-7.5-.5 11.59-7.21 17.78-19.78 6.37 18.67-3.63-17.04 42ZM90.1 213.41l31.23-5.98 56.25-33.48 23.35-35.46 19.4-46.86-18.7 48.09L179 176.39l-56.48 35.5-35.97 9.26-4.12-.43 7.67-7.3Z" clip-rule="evenodd"/>
  <path fill="url(#a)" fill-opacity=".2" fill-rule="evenodd" d="m207.62 178.24-20.98-.36 20.01 2.75-1.8 4.44-38.48 30.2-15-5.25 13.35 6.55-14.3 11.23-63.87-6.65-40.97 10.55-5.3-8.74 49.82-9.55 21.4-20.4 18.65-15.08 8.11 18.6-6.06-20.26 26.46-21.4 5.37-7.14 8.96 22.57-6.75-25.51 25.54-33.96 6.83 24.46-4.3-27.83 5.4-7.18 10.33-13.82 1.97 18.7.3-21.75 23.38-31.28-2.09 49.09-20.05 10.41 19.93-7.5-.5 11.59-7.21 17.78-19.78 6.37 18.67-3.63-17.04 42ZM90.1 213.41l31.23-5.98 56.25-33.48 23.35-35.46 19.4-46.86-18.7 48.09L179 176.39l-56.48 35.5-35.97 9.26-4.12-.43 7.67-7.3Z" clip-rule="evenodd"/>
  <path fill="#000" fill-opacity=".8" fill-rule="evenodd" d="m140.7 135.22-15 4.25 14.82-2.35-.33 3.55-20.86 29.75-11.8-.51 10.9 1.78-7.76 11.06-46.85 9-26.87 16.32-5.64-5.08 33.37-17.5 10.84-19.1 10.02-14.75 9.76 11.49-8.66-13.1 14.21-20.91 2.29-6.23L114.36 137l-10.28-16.69 10.86-29.64 10.11 15.93-9.03-18.87 2.3-6.27 4.37-12.04 5.42 12.87-4.46-15.54 9.9-27.26 9.06 35.36-12.02 11.71 12.56-9.61 2.14 8.34-1.3 14.2-12.7 8.78 12.5-6.6-3.1 33.54Zm-76.02 50.27 20.93-10.97 32.8-35.9 8.99-30.23 3.72-37.5-2.96 38.22-8.22 30.95-32.53 37.38-23.59 14.32-3.02.58 3.88-6.85Z" clip-rule="evenodd"/>
  <path fill="url(#b)" fill-opacity=".2" fill-rule="evenodd" d="m140.7 135.22-15 4.25 14.82-2.35-.33 3.55-20.86 29.75-11.8-.51 10.9 1.78-7.76 11.06-46.85 9-26.87 16.32-5.64-5.08 33.37-17.5 10.84-19.1 10.02-14.75 9.76 11.49-8.66-13.1 14.21-20.91 2.29-6.23L114.36 137l-10.28-16.69 10.86-29.64 10.11 15.93-9.03-18.87 2.3-6.27 4.37-12.04 5.42 12.87-4.46-15.54 9.9-27.26 9.06 35.36-12.02 11.71 12.56-9.61 2.14 8.34-1.3 14.2-12.7 8.78 12.5-6.6-3.1 33.54Zm-76.02 50.27 20.93-10.97 32.8-35.9 8.99-30.23 3.72-37.5-2.96 38.22-8.22 30.95-32.53 37.38-23.59 14.32-3.02.58 3.88-6.85Z" clip-rule="evenodd"/>
  <defs>
    <radialGradient id="a" cx="0" cy="0" r="1" gradientTransform="matrix(8 -31 146 39 38.45 229.8)" gradientUnits="userSpaceOnUse">
      <stop stop-color="#fff"/>
      <stop offset="1" stop-color="#fff" stop-opacity="0"/>
    </radialGradient>
    <radialGradient id="b" cx="0" cy="0" r="1" gradientTransform="matrix(-1 -24 112 -4 31.47 208.24)" gradientUnits="userSpaceOnUse">
      <stop stop-color="#fff"/>
      <stop offset="1" stop-color="#fff" stop-opacity="0"/>
    </radialGradient>
  </defs>
</svg>
