<svg xmlns="http://www.w3.org/2000/svg" fill="none" viewBox="0 0 276 276">
  <circle cx="119.6" cy="119.6" r="98.44" fill="#FFC700"/>
  <path fill="#000" fill-opacity=".8" fill-rule="evenodd" d="m138 60.26-65.78 18.4 13.8 103.96L138 220.11l22.87-16.5 3.83.72 2.65 15.92 14.05-7.95 12.26 10.5 5.65-15.12 16.14.15-5.39-15.21 12.46-10.25-13.9-8.2 2.95-15.86-15.91 2.66-2.27-4.01 10.39-78.3L138 60.26Zm55.39 96.7-5.67-10.04-10.48 12.27-15.11-5.66-.14 16.13-15.22 5.38 10.26 12.45-8.2 13.9 12.03 2.23 29.12-21 3.4-25.66ZM78.66 82.4 138 65.78l59.34 16.56L138 71.76 84.18 86.8l11.5 86.62 42.32 36.8-46.9-33.88-12.44-93.93Zm55.24 91.01v-66.14l-12.92 9.6 12.92-26.72h13.3v69.5l-13.3 13.76Z" clip-rule="evenodd"/>
  <path fill="url(#a)" fill-opacity=".2" fill-rule="evenodd" d="m138 60.26-65.78 18.4 13.8 103.96L138 220.11l22.87-16.5 3.83.72 2.65 15.92 14.05-7.95 12.26 10.5 5.65-15.12 16.14.15-5.39-15.21 12.46-10.25-13.9-8.2 2.95-15.86-15.91 2.66-2.27-4.01 10.39-78.3L138 60.26Zm55.39 96.7-5.67-10.04-10.48 12.27-15.11-5.66-.14 16.13-15.22 5.38 10.26 12.45-8.2 13.9 12.03 2.23 29.12-21 3.4-25.66ZM78.66 82.4 138 65.78l59.34 16.56L138 71.76 84.18 86.8l11.5 86.62 42.32 36.8-46.9-33.88-12.44-93.93Zm55.24 91.01v-66.14l-12.92 9.6 12.92-26.72h13.3v69.5l-13.3 13.76Z" clip-rule="evenodd"/>
  <defs>
    <radialGradient id="a" cx="0" cy="0" r="1" gradientTransform="matrix(0 -130 126 0 122.54 245.56)" gradientUnits="userSpaceOnUse">
      <stop stop-color="#fff"/>
      <stop offset="1" stop-color="#fff" stop-opacity="0"/>
    </radialGradient>
  </defs>
</svg>
