<svg xmlns="http://www.w3.org/2000/svg" fill="none" viewBox="0 0 102 74">
  <path fill="#FFC700" fill-rule="evenodd" d="M8.95 11.83.47 32.56l9.35 4.05V59.2L40.55 74l52.1-14.43v-23.2l9.35-2.33-8.46-22.1-53 11.74L8.96 11.83Zm31.6 14.81v-2.96 2.96Zm0 0L9.82 14.8v21.81l21.38 9.27 9.35-19.24Zm0 0V74 26.64l8.01 20.72 44.09-10.99V14.8l-52.1 11.84Zm0 0Z" clip-rule="evenodd"/>
  <path fill="#FFC700" fill-rule="evenodd" d="M8.93 11.84 62.15 0l31.39 11.84v2.96l-.88-.25-52.08 11.41L9.64 14.31l-.7.49v-2.96Z" clip-rule="evenodd"/>
</svg>
