<svg xmlns="http://www.w3.org/2000/svg" fill="none" viewBox="0 0 151 24">
  <path fill="#000"
    d="m60.4 19.6-1.1-1.7H48.6l-1 1.7h-6.7l9.7-15.2h6.7L67 19.6h-6.6ZM56.8 14l-2.9-4.5L51 14h5.8ZM89 4.4h7.7v15.2h-6v-8.4L85 19.6h-5.5L74 11.2v8.4h-6V4.4h7.7l6.6 10.1 6.6-10Zm23.2 0c4.1 0 7.5 2.6 7.5 5.7s-3.3 5.7-7.5 5.7h-7.4v3.8h-6V4.4h13.4Zm-1 7.6c1.3 0 2.4-.9 2.4-1.9 0-1-1.1-1.9-2.4-1.9h-6.4V12h6.4Zm21.5-1.9c7.4.2 12 .6 12 4.9 0 4.2-4.7 5-12.1 5-7.7 0-12-.8-12-5.5h6c0 1.7 2.4 1.7 6 1.7 3.5 0 6 0 6-1.2 0-1.5-2.6-1.4-6-1.5-7.5-.2-11.8-.7-11.8-4.7S125.2 4 132.6 4c7.7 0 11.8.8 11.8 5.5h-6c0-1.7-2.2-1.7-5.8-1.7-3.5 0-5.7 0-5.7 1 0 1.3 2.3 1.2 5.8 1.3ZM148 5.5c0 .2 0 .5-.3.7-.1.3-.4.4-.6.5-.3.1-.6.2-.9.1-.3 0-.6-.2-.8-.4l-.4-.7.1-.8.6-.6a1.6 1.6 0 0 1 1.9.2l.3.4.1.6Zm-2.8 0 .2.6.6.5a1.4 1.4 0 0 0 1.4-.3l.4-.6-.1-.7-.5-.5a1.4 1.4 0 0 0-1.6.1c-.2.3-.4.6-.4.9Zm1.3-.8c.3 0 .7.1.7.5v.2l-.3.1c.2 0 .3.2.3.5v.2h-.3V6c0-.3-.1-.4-.5-.4h-.2v.6h-.3V4.7h.6Zm0 .7c.3 0 .4 0 .4-.2s-.3-.2-.4-.2h-.3v.4h.3ZM36.9 14.7c1.9-1 3.1-2.7 3.1-4.6 0-3.1-3.3-5.7-7.4-5.7h-1.4c-.6 0-1.2.2-1.7.5s-.9.6-1.2 1.1L27 8.2h4.6c1.3 0 2.5.9 2.5 1.9 0 1-1.2 2-2.5 2h-7L23 14.2l-1 1.5h8.8l2.6 3.8h6.8L37 14.7Z" />
  <path fill="url(#a)"
    d="M21.1 4.4h-6c-.7 0-1.4.2-2 .5a4 4 0 0 0-1.6 1.4L3 19.6h6.6l3.4-5.3L18.3 6c.3-.4.7-.8 1.2-1.1.5-.3 1-.4 1.6-.5Z" />
  <path fill="#000"
    d="M29.5 4.4h-6c-.7 0-1.5.2-2 .5a4 4 0 0 0-1.6 1.4l-8.5 13.3H18l3.4-5.3L26.7 6a3 3 0 0 1 1.2-1c.4-.4 1-.5 1.6-.6Z" />
  <defs>
    <linearGradient id="a" x1="12.1" x2="12.1" y1="19.6" y2="4.4" gradientUnits="userSpaceOnUse">
      <stop offset=".6" stop-color="#FFC708" />
      <stop offset="1" stop-color="#F8A01B" />
    </linearGradient>
  </defs>
</svg>