<svg xmlns="http://www.w3.org/2000/svg" fill="none" viewBox="0 0 24 24">
  <circle cx="11" cy="11" r="9" fill="#FFC700"/>
  <path fill="#332800" fill-rule="evenodd" d="m4.4 5.04 8.15-2.28 8.16 2.28L19 17.94l-6.45 4.64-6.44-4.65L4.39 5.04Zm8.15-1.6L5.2 5.51l1.55 11.65 5.81 4.2 5.82-4.22L19.91 5.5l-7.36-2.06Zm7.36 2.06-7.36-1.31-6.67 1.86L7.3 16.79l5.25 4.57 5.82-4.22L19.91 5.5Zm-5.74 3.35-1.1-1.59-1.12 1.6-1.87-.51.17 1.93-1.76.82 1.37 1.37-.82 1.76 1.93.16.5 1.88 1.6-1.12 1.58 1.12.5-1.88 1.93-.16-.82-1.76 1.37-1.37-1.76-.82.17-1.93-1.87.5Z" clip-rule="evenodd"/>
</svg>
